# xmcd CD database file
#
# Track frame offsets:
#	150
#	20970
#	36422
#	61950
#	92140
#	111625
#	131862
#	154587
#	172272
#	189050
#	207225
#	227952
#	249487
#	276670
#
# Disc length: 4089 seconds
#
# Revision: 2
# Processed by: cddbd v1.5.2PL0 Copyright (c) Steve Scherf et al.
# Submitted via: CDex 1.51
#
DISCID=d90ff70e
DTITLE=John Lee Hooker - The Best Of Friends
DYEAR=1900
DGENRE=Blues
TTITLE0=Boogie Chillen
TTITLE1=This Is Hip
TTITLE2=The Healer
TTITLE3=I Cover The Waterfront
TTITLE4=Boom Boom
TTITLE5=I'm In The Mood
TTITLE6=Burnin' Hell
TTITLE7=Tupelo
TTITLE8=Baby Lee
TTITLE9=Dimples
TTITLE10=Up And Down
TTITLE11=Chill Out (Thing's Gonna Change)
TTITLE12=Big Legs Tight Skirt
TTITLE13=Don't Look Back
EXTD=
EXTT0=
EXTT1=
EXTT2=
EXTT3=
EXTT4=
EXTT5=
EXTT6=
EXTT7=
EXTT8=
EXTT9=
EXTT10=
EXTT11=
EXTT12=
EXTT13=
PLAYORDER=
